<?xml version="1.0" encoding="UTF-8" standalone="no"?>
<svg
   version="1.0"
   width="2495.7551pt"
   height="886.46069pt"
   viewBox="0 0 2495.7551 886.46069"
   preserveAspectRatio="xMidYMid"
   id="svg2"
   sodipodi:docname="logo2.svg"
   inkscape:version="1.3.2 (091e20e, 2023-11-25, custom)"
   xmlns:inkscape="http://www.inkscape.org/namespaces/inkscape"
   xmlns:sodipodi="http://sodipodi.sourceforge.net/DTD/sodipodi-0.dtd"
   xmlns="http://www.w3.org/2000/svg"
   xmlns:svg="http://www.w3.org/2000/svg">
  <defs
     id="defs2" />
  <sodipodi:namedview
     id="namedview2"
     pagecolor="#ffffff"
     bordercolor="#000000"
     borderopacity="0.25"
     inkscape:showpageshadow="2"
     inkscape:pageopacity="0.0"
     inkscape:pagecheckerboard="0"
     inkscape:deskcolor="#d1d1d1"
     inkscape:document-units="pt"
     inkscape:zoom="0.36766836"
     inkscape:cx="1642.7848"
     inkscape:cy="599.72526"
     inkscape:window-width="1920"
     inkscape:window-height="991"
     inkscape:window-x="-9"
     inkscape:window-y="-9"
     inkscape:window-maximized="1"
     inkscape:current-layer="svg2" />
  <g
     transform="matrix(0.1,0,0,-0.1,-149.07356,998.60902)"
     fill="#000000"
     stroke="none"
     id="g2">
    <path
       d="m 5135,9984 c -16,-2 -66,-9 -110,-15 -92,-12 -280,-59 -375,-93 -249,-90 -670,-337 -919,-539 -83,-68 -223,-190 -266,-232 -11,-11 -36,-34 -55,-50 -50,-43 -302,-314 -390,-420 -41,-49 -80,-94 -86,-100 -6,-5 -26,-30 -45,-55 -18,-25 -40,-51 -47,-59 -17,-17 -272,-360 -272,-365 0,-2 -34,-54 -75,-115 -41,-62 -75,-114 -75,-116 0,-7 -63,-109 -71,-115 -3,-3 -9,-15 -13,-27 -4,-13 -12,-23 -17,-23 -5,0 -9,-5 -9,-11 0,-9 -43,-87 -100,-179 -5,-8 -41,-78 -80,-155 -39,-77 -75,-147 -80,-155 -11,-20 -99,-208 -112,-240 -21,-51 -40,-96 -54,-123 -8,-16 -14,-35 -14,-42 0,-7 -6,-26 -14,-42 -26,-52 -46,-104 -46,-118 0,-7 -6,-26 -14,-42 -8,-15 -22,-48 -31,-73 -9,-25 -23,-60 -31,-78 -8,-18 -14,-41 -14,-50 0,-10 -4,-22 -10,-28 -5,-5 -14,-30 -19,-54 -6,-25 -17,-67 -25,-95 -9,-27 -21,-70 -27,-95 -6,-25 -15,-52 -19,-60 -4,-9 -11,-36 -14,-60 -4,-25 -11,-56 -16,-70 -6,-14 -14,-58 -20,-97 -5,-40 -15,-106 -20,-145 -6,-40 -14,-82 -19,-93 -5,-11 -12,-65 -15,-120 -4,-55 -11,-118 -16,-140 -13,-54 -12,-538 1,-595 6,-25 14,-90 19,-145 5,-55 16,-136 24,-180 8,-44 20,-107 26,-140 6,-33 15,-67 19,-75 5,-9 12,-35 16,-58 4,-23 11,-44 16,-48 5,-3 9,-13 9,-22 0,-9 7,-30 15,-46 8,-15 15,-34 15,-42 0,-7 7,-30 16,-51 9,-21 22,-51 29,-68 19,-47 53,-115 90,-180 19,-33 39,-69 45,-80 6,-11 19,-33 30,-50 11,-16 23,-37 27,-45 29,-64 244,-304 343,-384 74,-59 234,-159 316,-197 333,-155 751,-190 1133,-94 148,38 185,51 366,128 228,99 486,262 720,457 89,74 113,94 256,221 125,112 360,348 456,459 50,58 103,119 119,135 38,41 174,224 174,235 0,18 32,40 59,40 23,0 29,-7 44,-48 9,-26 20,-76 23,-112 4,-36 13,-77 20,-92 8,-15 14,-36 14,-47 0,-11 6,-32 14,-48 8,-15 38,-75 66,-133 51,-106 67,-134 85,-156 6,-6 17,-22 25,-35 25,-39 132,-143 183,-178 123,-84 292,-122 449,-102 292,38 537,201 792,526 112,142 201,266 212,295 3,8 10,25 14,37 21,51 115,30 150,-33 37,-66 165,-124 272,-124 66,0 180,27 240,56 105,53 248,175 328,282 14,19 30,39 35,46 6,6 21,27 35,46 28,40 30,43 70,90 16,19 30,42 30,52 0,9 26,52 58,95 32,43 61,86 65,96 12,33 36,19 41,-25 3,-24 8,-59 11,-78 3,-19 9,-80 14,-135 4,-55 13,-116 19,-135 15,-51 32,-119 41,-165 4,-22 13,-50 19,-62 7,-12 12,-30 12,-41 0,-11 7,-25 15,-32 8,-7 15,-18 15,-26 0,-27 74,-138 137,-205 174,-184 390,-216 653,-97 108,49 291,193 310,244 5,13 27,32 49,43 21,11 48,32 58,47 30,40 53,27 53,-30 0,-37 -5,-48 -28,-64 -21,-16 -32,-37 -46,-91 -30,-115 -12,-319 32,-363 7,-7 12,-18 12,-25 0,-7 26,-39 59,-72 82,-82 152,-105 300,-99 91,4 117,9 183,37 139,58 271,164 383,306 22,28 43,52 47,53 5,2 8,10 8,17 0,8 6,18 13,22 7,4 21,26 31,48 10,22 23,47 28,55 4,8 11,22 14,30 3,8 12,28 20,43 7,16 14,35 14,44 0,8 6,27 14,41 45,88 60,219 46,396 -7,82 -6,117 3,135 22,46 529,291 600,291 14,0 167,-173 167,-188 0,-12 -74,-88 -124,-127 -72,-57 -125,-111 -181,-185 -27,-36 -52,-67 -55,-70 -14,-13 -70,-99 -70,-108 0,-6 -6,-17 -13,-24 -11,-11 -24,-40 -66,-143 -13,-31 -30,-102 -46,-185 -14,-74 -7,-193 16,-245 4,-11 15,-37 23,-58 24,-58 101,-129 172,-155 167,-63 336,-40 505,69 135,88 324,297 386,431 52,109 63,136 63,150 0,8 3,18 8,22 29,29 55,375 32,439 -8,24 -7,40 5,72 15,39 23,44 178,122 268,135 407,191 556,224 93,21 107,27 141,61 65,66 65,174 1,248 -62,72 -138,84 -304,51 -152,-31 -437,-138 -604,-227 -93,-49 -141,-56 -173,-24 -11,11 -20,27 -20,36 0,9 -6,28 -13,42 -8,15 -21,44 -30,65 -10,20 -25,54 -34,75 -9,20 -23,53 -31,72 -8,19 -19,43 -24,53 -42,84 -41,336 1,414 5,10 19,38 30,63 12,25 34,63 49,85 l 28,40 h 85 c 74,0 89,3 124,26 47,31 60,45 86,96 24,47 26,177 4,207 -8,11 -15,27 -15,36 0,27 -83,103 -146,135 -53,26 -69,29 -159,28 -116,0 -193,-20 -296,-78 -124,-70 -244,-191 -309,-311 -12,-22 -25,-46 -29,-54 -39,-69 -101,-252 -101,-295 0,-13 -4,-35 -9,-49 -25,-63 -22,-294 4,-398 16,-62 -13,-93 -110,-118 -27,-7 -132,-51 -233,-97 -246,-114 -292,-119 -306,-31 -4,24 -27,86 -52,138 -77,159 -108,256 -116,360 -3,43 20,164 38,199 8,14 14,31 14,37 0,17 60,127 81,149 16,17 34,20 103,22 112,2 162,28 205,108 26,49 30,173 6,219 -8,15 -15,34 -15,40 0,19 -51,76 -95,105 -61,41 -120,56 -220,55 -157,-1 -315,-68 -429,-180 -51,-51 -146,-179 -171,-229 -11,-22 -23,-41 -27,-43 -5,-2 -8,-8 -8,-13 0,-10 -34,-91 -50,-121 -6,-10 -10,-28 -10,-40 0,-13 -7,-36 -15,-52 -8,-15 -15,-39 -15,-52 0,-13 -7,-49 -15,-81 -19,-73 -19,-222 0,-293 8,-30 15,-69 15,-86 0,-18 7,-45 15,-60 8,-16 15,-38 15,-49 0,-11 7,-29 15,-39 21,-27 19,-58 -7,-108 -19,-38 -74,-124 -88,-138 -3,-3 -9,-13 -15,-22 -29,-49 -130,-191 -163,-229 -21,-24 -53,-64 -72,-89 -73,-94 -223,-250 -332,-344 -62,-53 -166,-106 -208,-106 -25,0 -76,61 -100,121 -12,30 -26,63 -31,74 -17,40 -31,261 -25,390 14,297 18,360 23,368 3,5 11,57 19,115 7,59 20,152 29,207 8,55 20,133 26,174 5,41 14,82 19,92 6,10 10,42 10,71 0,30 7,80 15,111 21,82 20,195 -4,249 -29,67 -94,133 -164,168 -55,26 -70,29 -137,27 -109,-5 -165,-39 -246,-151 -20,-27 -22,-28 -45,-13 -13,8 -60,28 -104,43 -103,35 -251,43 -373,20 -133,-25 -322,-114 -436,-205 -60,-48 -216,-204 -216,-217 0,-3 -13,-23 -28,-43 -16,-20 -32,-43 -36,-51 -3,-8 -22,-42 -41,-75 -19,-33 -51,-94 -71,-135 -19,-41 -39,-82 -43,-90 -5,-9 -12,-31 -16,-50 -4,-19 -10,-39 -14,-45 -7,-11 -27,-94 -42,-175 -5,-30 -14,-59 -18,-65 -5,-5 -11,-46 -13,-90 -5,-87 -12,-102 -107,-255 -29,-47 -58,-94 -64,-105 -28,-46 -128,-201 -139,-217 -7,-9 -20,-27 -28,-39 -100,-147 -159,-218 -292,-351 -228,-225 -389,-278 -502,-164 -44,43 -116,179 -116,218 -1,13 -7,34 -15,48 -8,14 -14,39 -15,55 0,17 -5,36 -11,42 -6,6 -15,62 -20,125 -5,62 -13,145 -18,183 -13,107 -9,381 7,397 6,6 12,20 12,29 0,23 54,128 108,207 23,35 42,69 42,76 0,8 7,19 15,26 8,7 15,16 15,21 0,5 20,42 45,82 25,41 45,77 45,81 0,3 18,35 40,71 22,36 40,69 40,74 0,5 6,16 13,23 6,7 22,33 35,58 12,25 27,52 32,60 5,8 11,22 14,30 4,8 15,29 26,45 10,17 31,53 45,80 69,132 83,157 94,168 6,6 11,17 11,25 0,7 7,20 15,28 8,9 15,24 15,34 0,10 4,21 9,25 5,3 27,40 48,83 21,42 40,79 43,82 3,3 18,30 33,60 15,30 42,83 61,116 18,34 36,74 40,88 3,14 11,26 16,26 6,0 10,8 11,18 0,9 18,49 40,87 21,39 42,77 45,85 4,8 33,71 66,140 33,69 64,134 68,145 5,11 29,63 54,116 25,52 46,99 46,103 0,4 7,24 16,44 8,21 21,51 28,67 22,54 47,109 62,138 8,16 14,35 14,44 0,8 6,27 14,41 16,33 35,85 46,131 5,18 13,38 19,44 6,6 11,22 11,37 1,14 7,36 15,50 8,14 14,38 15,53 0,16 5,38 12,50 6,12 15,58 20,102 5,44 11,102 14,129 12,101 -27,265 -84,354 -66,102 -134,150 -246,176 -122,29 -202,16 -354,-56 -74,-36 -101,-57 -183,-139 -82,-82 -120,-132 -197,-254 -6,-11 -17,-29 -22,-40 -6,-11 -19,-33 -30,-50 -11,-16 -24,-39 -30,-50 -6,-11 -26,-47 -44,-80 -19,-33 -65,-121 -103,-195 -37,-74 -70,-137 -73,-140 -3,-3 -12,-21 -21,-40 -9,-19 -31,-66 -49,-105 -18,-38 -39,-86 -47,-105 -9,-19 -22,-48 -29,-63 -8,-16 -14,-37 -14,-47 0,-9 -7,-23 -15,-30 -8,-7 -15,-21 -15,-32 0,-11 -6,-32 -14,-46 -7,-15 -22,-45 -31,-67 -10,-22 -24,-53 -31,-68 -8,-16 -14,-39 -14,-52 0,-12 -7,-28 -15,-35 -8,-7 -15,-20 -15,-30 0,-10 -7,-31 -15,-46 -8,-16 -15,-36 -15,-45 0,-8 -4,-19 -9,-25 -4,-5 -18,-43 -31,-84 -12,-41 -26,-83 -31,-92 -5,-10 -9,-27 -9,-38 0,-11 -6,-37 -14,-57 -7,-21 -21,-65 -30,-98 -9,-33 -24,-81 -32,-106 -7,-26 -14,-57 -14,-69 0,-12 -6,-36 -14,-53 -13,-30 -25,-83 -46,-189 -5,-26 -13,-56 -19,-67 -6,-11 -11,-40 -11,-66 0,-25 -7,-62 -15,-82 -8,-19 -15,-54 -15,-77 0,-22 -7,-63 -15,-90 -8,-27 -15,-71 -15,-97 0,-26 -5,-60 -11,-76 -6,-15 -15,-68 -20,-118 -5,-49 -13,-112 -18,-140 -6,-27 -10,-89 -10,-136 -1,-87 -22,-179 -48,-210 -7,-8 -13,-20 -13,-26 0,-6 -4,-13 -8,-15 -4,-1 -19,-21 -32,-43 -13,-22 -28,-44 -32,-50 -5,-5 -37,-49 -71,-96 -35,-47 -75,-99 -90,-115 -15,-16 -27,-32 -27,-35 0,-3 -8,-15 -17,-27 -10,-11 -29,-36 -43,-54 -14,-18 -39,-48 -56,-68 -16,-19 -39,-47 -50,-61 -22,-29 -105,-125 -184,-213 -85,-95 -387,-396 -465,-463 -300,-259 -682,-489 -962,-583 -169,-56 -284,-73 -488,-73 -284,1 -452,47 -646,178 -153,103 -317,298 -399,475 -52,111 -80,178 -80,190 0,5 -4,18 -9,28 -24,48 -57,197 -71,326 -4,44 -13,98 -20,120 -23,84 -1,665 31,816 5,25 14,74 19,110 9,64 24,135 54,255 8,33 21,83 28,112 7,28 16,55 21,59 4,4 7,17 7,28 0,23 64,220 80,248 6,10 10,26 10,36 0,10 7,27 15,38 8,10 15,28 15,40 0,11 7,29 15,40 8,10 15,28 15,40 0,11 7,29 15,40 8,10 15,25 15,31 0,7 14,43 31,80 34,76 52,116 75,171 10,20 21,44 26,52 4,8 11,22 14,30 8,20 151,309 166,335 15,27 23,42 53,100 14,28 34,64 45,80 10,17 25,41 32,55 8,14 47,79 87,145 93,155 95,157 104,169 4,6 31,47 59,91 29,44 56,82 60,83 4,2 8,8 8,13 0,8 254,353 284,386 6,6 22,26 36,44 14,18 41,52 60,75 19,22 53,63 75,89 121,145 438,459 586,580 227,184 521,357 750,440 163,58 405,83 510,51 174,-53 258,-157 302,-373 22,-112 8,-488 -22,-586 -5,-18 -15,-63 -21,-102 -22,-145 -29,-178 -39,-188 -6,-6 -11,-23 -11,-37 0,-14 -6,-34 -14,-45 -7,-11 -16,-36 -18,-55 -3,-19 -11,-50 -17,-67 -27,-79 -33,-99 -38,-123 -2,-14 -11,-38 -18,-55 -7,-16 -20,-49 -29,-72 -9,-24 -23,-61 -31,-83 -8,-22 -21,-57 -29,-77 -31,-84 -50,-131 -85,-213 -5,-14 -27,-65 -47,-114 -38,-96 -42,-104 -67,-154 -9,-19 -17,-39 -17,-45 0,-10 -107,-238 -130,-277 -5,-8 -21,-37 -35,-65 -14,-27 -34,-63 -45,-80 -11,-16 -26,-43 -33,-60 -13,-28 -147,-213 -178,-245 -32,-34 -137,-157 -162,-191 -28,-37 -57,-128 -57,-177 0,-69 42,-159 96,-207 84,-75 203,-83 329,-24 66,31 155,124 195,204 6,11 19,34 30,50 10,17 30,53 45,80 14,28 29,57 34,65 5,8 12,22 15,30 4,8 15,29 26,45 11,17 23,37 26,45 3,8 32,67 64,130 32,63 69,138 82,165 14,28 36,74 49,103 13,28 27,52 31,52 5,0 8,7 8,16 0,9 6,28 14,42 15,28 54,113 101,217 46,104 61,139 80,185 9,25 21,54 26,65 33,80 51,122 58,135 5,9 12,30 15,48 4,17 12,34 17,37 5,4 9,14 9,23 0,9 7,30 15,46 8,15 15,36 15,45 0,10 7,26 15,37 8,10 15,26 15,34 0,8 7,28 15,44 8,15 15,36 15,45 0,9 7,29 15,45 8,15 15,38 15,50 1,11 7,32 15,46 8,14 14,34 15,45 0,11 7,33 15,49 8,15 15,38 15,50 1,11 7,32 15,46 8,14 15,41 15,60 0,19 7,46 15,60 8,14 14,41 15,61 0,20 7,53 15,72 8,20 15,50 15,66 0,17 7,56 15,88 8,31 15,87 15,123 0,36 5,83 10,105 11,45 15,329 5,345 -3,5 -10,51 -16,100 -5,50 -13,98 -18,108 -5,9 -17,44 -27,77 -26,85 -85,199 -134,259 -85,106 -200,197 -309,248 -138,64 -210,79 -416,83 -99,2 -193,1 -210,-1 z M 7500,8505 c 8,-10 10,-27 5,-48 -4,-17 -9,-48 -12,-67 -2,-19 -11,-54 -19,-78 -8,-23 -14,-51 -14,-62 0,-10 -4,-21 -9,-25 -5,-3 -13,-19 -16,-36 -4,-17 -17,-52 -30,-78 -12,-25 -30,-66 -40,-91 -9,-25 -23,-58 -30,-75 -7,-16 -24,-57 -36,-90 -13,-33 -34,-80 -46,-104 -13,-24 -23,-50 -23,-56 0,-7 -27,-65 -60,-129 -33,-64 -60,-123 -60,-131 0,-8 -13,-34 -30,-57 -16,-22 -30,-47 -30,-54 0,-7 -6,-25 -14,-41 -20,-39 -34,-74 -41,-103 -4,-14 -17,-36 -30,-50 -12,-14 -30,-43 -40,-65 -9,-22 -23,-55 -31,-73 -8,-18 -14,-43 -14,-56 0,-13 -20,-48 -43,-77 -46,-57 -77,-123 -77,-165 0,-37 -14,-57 -59,-89 -23,-15 -41,-34 -41,-42 0,-8 -4,-12 -9,-9 -5,4 -12,0 -15,-6 -9,-19 0,33 12,67 25,72 33,107 39,157 3,29 9,58 14,63 4,6 11,31 15,55 4,25 10,50 14,55 4,6 17,39 29,75 12,36 25,74 30,85 15,38 33,90 43,130 6,22 15,44 19,50 5,5 9,15 9,23 0,8 7,30 16,50 8,21 21,51 28,67 7,17 21,47 30,68 9,21 16,46 16,55 0,10 7,27 15,38 8,10 15,29 15,41 0,12 7,35 15,52 8,17 22,45 30,62 8,17 15,37 15,45 0,8 4,14 9,14 5,0 13,14 16,32 4,18 11,39 16,48 7,14 47,98 139,295 18,39 36,72 40,75 4,3 10,15 14,28 4,12 12,22 17,22 5,0 9,8 9,19 0,10 20,43 45,73 25,30 45,58 45,62 0,4 10,20 22,36 24,33 67,40 88,15 z M 8873,5868 c 73,-91 74,-121 6,-254 -98,-189 -135,-259 -162,-301 -15,-24 -27,-45 -27,-48 0,-4 -11,-21 -23,-38 -13,-18 -34,-52 -46,-77 -13,-25 -36,-62 -53,-84 -17,-21 -38,-54 -47,-72 -17,-35 -126,-134 -147,-134 -38,0 -58,263 -30,383 9,38 16,80 16,94 0,23 19,93 41,148 4,11 11,31 15,45 4,14 18,42 30,62 13,21 24,40 24,43 0,10 115,158 139,179 12,11 42,34 69,53 44,31 51,33 112,28 52,-4 68,-9 83,-27 z m 2102,-958 c 7,-22 -9,-50 -28,-50 -6,0 -21,-10 -34,-22 -18,-17 -23,-18 -23,-6 0,9 7,21 15,28 9,7 14,18 12,24 -5,14 22,46 39,46 7,0 16,-9 19,-20 z m 178,-490 c 3,-10 -1,-24 -9,-31 -8,-6 -14,-21 -14,-33 0,-11 -7,-34 -15,-50 -8,-15 -15,-34 -15,-42 0,-7 -15,-24 -33,-38 -18,-14 -48,-55 -67,-91 -20,-39 -42,-67 -54,-71 -12,-3 -36,-13 -53,-21 -18,-8 -40,-13 -48,-9 -23,9 -18,50 10,76 14,13 25,32 25,42 0,10 3,18 8,18 4,0 18,22 31,49 12,27 45,72 72,100 27,28 55,66 63,86 14,32 19,35 54,35 31,0 41,-4 45,-20 z m 1437,4 c 0,-9 -9,-27 -19,-40 -11,-14 -25,-48 -33,-77 -9,-37 -24,-63 -54,-92 -22,-22 -43,-47 -47,-55 -39,-84 -74,-116 -141,-127 -47,-7 -54,23 -15,74 16,21 29,45 29,54 0,9 7,22 15,29 8,7 15,19 15,27 0,8 25,42 55,76 31,34 61,73 68,87 22,45 127,81 127,44 z"
       id="path1" />
    <path
       d="m 16765,9949 c -33,-5 -96,-14 -140,-19 -85,-11 -167,-26 -225,-40 -19,-5 -62,-15 -95,-23 -294,-71 -717,-250 -1040,-440 -101,-59 -318,-206 -335,-227 -3,-3 -41,-35 -85,-70 -315,-255 -568,-572 -690,-865 -7,-16 -18,-41 -23,-55 -17,-41 -52,-162 -52,-180 0,-9 -5,-21 -11,-27 -14,-14 -21,-364 -9,-443 10,-67 28,-148 39,-175 5,-11 16,-47 26,-80 10,-33 24,-71 31,-85 36,-77 86,-177 94,-190 5,-8 11,-22 14,-30 4,-8 15,-28 26,-45 11,-16 23,-38 26,-47 4,-10 10,-18 14,-18 4,0 18,-19 30,-42 19,-36 70,-110 90,-128 3,-3 20,-27 39,-55 19,-27 39,-54 45,-60 6,-5 27,-30 46,-55 34,-44 67,-83 103,-121 9,-11 17,-21 17,-23 0,-2 15,-19 33,-38 17,-18 62,-67 99,-108 81,-92 132,-146 301,-321 153,-156 328,-339 441,-460 44,-46 121,-127 170,-179 50,-52 120,-129 156,-170 35,-41 77,-88 92,-104 30,-32 36,-67 14,-85 -7,-6 -42,-18 -77,-25 -132,-28 -667,-170 -854,-226 -55,-17 -116,-35 -135,-41 -144,-44 -456,-185 -634,-288 -49,-28 -91,-51 -94,-51 -6,0 -178,-121 -227,-160 -59,-47 -179,-164 -222,-218 -21,-26 -46,-56 -55,-66 -18,-19 -82,-121 -124,-197 -12,-20 -24,-49 -28,-63 -3,-14 -11,-26 -16,-26 -6,0 -10,-10 -10,-23 0,-13 -7,-32 -15,-43 -8,-10 -15,-28 -15,-40 0,-11 -7,-29 -15,-40 -8,-10 -15,-35 -15,-55 0,-20 -7,-58 -15,-85 -20,-67 -20,-286 0,-344 8,-23 15,-55 15,-71 0,-16 6,-43 14,-61 8,-18 22,-53 31,-78 9,-25 20,-52 24,-60 22,-43 83,-153 91,-163 149,-188 253,-277 452,-386 248,-136 655,-199 1003,-156 209,26 240,32 445,93 268,80 647,277 892,464 77,59 281,254 359,343 44,50 153,195 162,215 4,8 16,29 27,45 11,17 23,37 26,45 3,8 18,40 33,70 15,30 35,82 45,115 11,33 23,69 28,80 8,19 17,61 38,180 11,64 11,376 0,435 -23,125 -32,166 -41,175 -5,5 -9,20 -9,35 0,14 -7,38 -15,54 -8,15 -15,38 -15,51 0,12 -7,28 -15,35 -8,7 -15,20 -15,29 -1,9 -12,34 -25,56 -46,77 -63,111 -70,143 -8,39 -3,42 170,83 221,52 690,200 760,239 l 38,21 21,-20 c 19,-20 34,-70 57,-191 5,-30 14,-59 20,-65 5,-5 9,-21 9,-36 0,-15 7,-32 15,-39 8,-7 15,-19 15,-26 0,-16 49,-99 93,-159 128,-173 324,-249 521,-200 145,37 263,128 426,328 30,38 57,73 59,80 2,6 9,17 15,23 13,14 77,107 149,218 29,43 60,90 69,105 10,14 21,33 25,42 5,9 18,29 30,45 49,63 93,137 93,155 0,23 86,115 116,123 18,5 24,1 32,-23 10,-30 8,-50 -33,-232 -9,-39 -15,-119 -15,-190 -1,-130 -22,-256 -50,-294 -18,-24 -171,-149 -280,-227 -25,-18 -59,-45 -77,-61 -18,-16 -45,-39 -61,-51 -251,-182 -704,-607 -893,-837 -21,-24 -48,-56 -60,-70 -72,-79 -219,-278 -219,-295 0,-3 -11,-20 -24,-37 -59,-78 -164,-290 -223,-452 -8,-22 -21,-53 -29,-68 -8,-16 -14,-41 -14,-55 0,-15 -6,-47 -14,-72 -29,-92 -40,-191 -43,-412 -3,-188 -1,-232 11,-263 9,-21 16,-50 16,-66 0,-38 58,-169 116,-261 57,-90 191,-196 307,-242 113,-45 302,-46 457,-3 196,55 425,213 597,412 76,88 86,101 103,125 8,12 20,28 25,34 13,14 68,96 78,116 4,8 16,29 27,45 11,17 24,39 30,50 6,11 19,34 30,50 11,17 22,37 26,45 3,8 9,22 14,30 15,25 103,211 127,267 7,18 20,47 28,65 7,18 21,51 30,73 22,53 35,84 50,120 12,29 29,73 61,158 9,23 22,57 30,75 8,18 14,40 14,50 0,9 7,26 15,36 8,11 15,28 15,38 0,9 6,32 14,50 17,42 35,94 46,133 5,17 13,44 18,60 11,31 28,88 57,190 9,33 23,80 31,105 8,25 14,57 14,72 0,15 4,29 9,32 5,4 12,25 16,49 3,23 10,51 15,62 5,11 13,45 19,75 5,30 17,91 26,135 30,143 46,229 55,295 5,36 14,83 19,105 6,22 12,67 14,100 6,73 28,123 70,153 52,37 196,130 280,179 43,26 98,64 122,85 48,43 92,56 125,38 20,-11 21,-16 14,-58 -10,-62 -6,-318 6,-412 5,-41 14,-124 20,-185 19,-193 30,-244 66,-318 8,-16 14,-34 14,-41 0,-21 74,-93 119,-116 132,-67 282,-39 396,75 30,31 55,63 55,73 0,10 7,27 15,38 8,10 15,32 15,48 0,25 11,69 42,161 5,17 14,46 18,65 9,39 25,87 46,138 8,18 14,43 14,55 0,12 7,31 15,41 8,11 15,28 15,37 0,10 7,30 15,46 32,63 75,160 75,171 0,6 21,50 46,99 26,48 53,102 61,118 8,17 18,38 24,47 5,10 9,22 9,27 0,6 13,30 30,54 16,25 30,49 30,55 0,5 7,15 15,22 8,7 15,21 15,32 0,24 23,67 67,126 18,24 39,63 49,88 13,36 21,44 41,44 h 25 l -6,-92 c -3,-51 -9,-185 -12,-297 -6,-205 -2,-254 37,-431 6,-25 14,-68 19,-96 4,-28 13,-61 19,-72 6,-11 11,-29 11,-40 0,-10 11,-39 24,-63 14,-24 35,-64 48,-88 13,-25 56,-79 95,-121 77,-82 160,-134 262,-164 79,-23 248,-21 326,3 179,57 287,131 495,338 118,118 170,163 184,161 20,-3 29,-30 54,-168 5,-25 20,-70 34,-100 14,-30 28,-62 32,-70 3,-8 15,-28 26,-45 11,-16 25,-40 31,-52 7,-13 16,-23 21,-23 4,0 8,-6 8,-13 0,-19 114,-127 180,-170 98,-65 241,-106 370,-107 238,-1 512,108 775,308 290,221 728,635 930,878 22,26 54,64 71,84 222,255 266,329 249,412 -18,88 -96,148 -191,148 -81,0 -111,-24 -279,-221 -55,-65 -525,-531 -605,-600 -188,-163 -316,-263 -455,-356 -219,-146 -357,-184 -471,-128 -90,44 -138,121 -153,250 -10,77 -3,342 9,400 6,25 14,66 20,93 5,26 14,56 19,67 5,11 12,31 14,45 3,14 11,41 17,60 35,96 43,117 56,143 8,16 14,35 14,44 0,8 6,27 13,41 8,15 21,43 30,62 50,113 169,344 180,348 4,2 7,9 7,15 0,21 37,81 73,119 19,20 45,58 57,83 22,45 52,64 85,51 19,-7 19,-46 0,-72 -8,-10 -15,-28 -15,-38 0,-11 -12,-53 -26,-94 -23,-67 -24,-79 -14,-124 32,-131 217,-151 341,-36 14,13 28,31 32,41 3,9 11,17 17,17 5,0 10,4 10,9 0,4 20,39 45,77 25,37 45,73 45,80 0,6 7,17 15,24 8,7 15,22 15,34 0,11 7,30 15,40 8,11 15,30 15,42 0,12 7,39 16,60 25,57 25,286 1,333 -9,19 -17,39 -17,46 0,20 -107,131 -157,163 -80,51 -135,65 -263,65 -109,1 -120,-1 -211,-36 -126,-49 -284,-153 -383,-253 -163,-163 -283,-314 -356,-449 -15,-27 -37,-66 -49,-85 -11,-19 -23,-42 -27,-50 -3,-8 -10,-22 -15,-30 -5,-8 -12,-22 -15,-30 -9,-24 -35,-83 -50,-113 -8,-16 -14,-35 -14,-42 0,-7 -8,-28 -17,-47 -30,-59 -33,-67 -42,-105 -25,-98 -35,-130 -47,-160 -8,-17 -14,-38 -14,-46 0,-8 -7,-20 -15,-27 -8,-7 -15,-19 -15,-26 0,-8 -4,-14 -10,-14 -5,0 -10,-6 -10,-14 0,-11 -88,-139 -137,-201 -5,-5 -16,-22 -25,-36 -9,-14 -23,-32 -30,-40 -8,-8 -38,-45 -67,-84 -96,-128 -295,-329 -384,-388 -91,-61 -170,-87 -206,-67 -12,6 -21,17 -21,25 0,8 -4,15 -8,15 -10,0 -42,70 -60,130 -7,25 -19,104 -27,175 -14,132 -9,305 16,500 5,44 13,114 17,155 5,41 14,85 20,97 7,12 12,43 12,70 1,26 7,59 15,73 8,14 14,41 15,60 0,19 7,57 15,84 20,67 19,214 -2,280 -24,75 -24,75 -67,138 -28,43 -114,99 -181,120 -203,61 -433,-32 -611,-248 -21,-26 -53,-64 -70,-83 -41,-48 -149,-192 -157,-211 -4,-8 -18,-33 -32,-55 -13,-22 -24,-46 -25,-54 0,-7 -19,-39 -43,-71 -24,-31 -51,-82 -61,-112 -12,-39 -24,-58 -41,-66 -22,-10 -25,-9 -31,14 -4,14 -4,56 0,92 4,37 10,117 15,177 5,61 14,123 20,138 6,16 11,47 11,70 0,23 7,67 15,97 8,30 15,75 15,100 0,25 7,71 15,103 36,153 -77,325 -226,342 -76,9 -159,-9 -204,-45 -44,-35 -92,-99 -101,-135 -3,-14 -10,-28 -15,-31 -5,-3 -9,-23 -9,-45 0,-22 -5,-50 -12,-62 -6,-12 -15,-40 -19,-62 -4,-22 -13,-60 -19,-85 -25,-100 -33,-137 -40,-185 -13,-92 -31,-199 -42,-255 -5,-30 -14,-75 -18,-100 -18,-107 -19,-107 -255,-230 -77,-40 -167,-92 -201,-115 -33,-23 -72,-45 -85,-48 -13,-3 -39,-11 -57,-18 -46,-19 -53,-5 -50,116 3,153 -13,423 -28,485 -8,30 -14,76 -14,102 0,61 -68,261 -103,305 -194,237 -397,182 -687,-187 -46,-58 -90,-116 -99,-130 -8,-14 -18,-27 -21,-30 -3,-3 -9,-12 -15,-22 -5,-9 -47,-71 -92,-138 -46,-66 -83,-123 -83,-125 0,-2 -25,-40 -55,-85 -30,-45 -55,-84 -55,-86 0,-5 -40,-64 -50,-74 -6,-6 -15,-21 -59,-96 -17,-28 -40,-59 -51,-69 -11,-10 -20,-21 -20,-25 0,-9 -73,-118 -139,-207 -59,-80 -82,-90 -118,-50 -30,32 -41,78 -53,207 -11,126 1,395 19,443 6,16 11,45 11,66 0,21 7,58 15,81 8,23 15,57 15,74 1,17 7,42 15,56 8,14 14,42 15,63 0,21 5,48 12,60 6,12 15,38 19,57 4,19 13,51 19,70 68,190 70,200 70,303 0,143 -36,210 -148,276 -46,27 -62,31 -127,31 -62,0 -85,-5 -139,-31 -68,-33 -135,-89 -183,-154 -37,-51 -93,-168 -93,-195 0,-12 -5,-31 -11,-42 -6,-11 -15,-44 -19,-72 -9,-50 -20,-105 -41,-196 -6,-25 -15,-108 -19,-185 -9,-155 -17,-213 -33,-233 -19,-24 -78,-48 -262,-110 -207,-68 -212,-70 -400,-118 -77,-19 -216,-55 -310,-79 -270,-69 -294,-69 -344,0 -17,24 -44,57 -59,72 -15,16 -58,64 -97,108 -100,114 -132,150 -200,224 -71,76 -304,317 -460,475 -352,357 -616,650 -747,828 -99,136 -107,148 -114,171 -4,9 -9,17 -13,17 -3,0 -18,21 -31,48 -14,26 -28,49 -31,52 -3,3 -12,19 -21,35 -8,17 -28,55 -45,85 -16,30 -39,87 -51,125 -12,39 -27,85 -33,102 -38,118 -46,267 -24,413 10,63 21,120 25,125 4,6 11,31 14,57 4,26 11,50 17,53 5,4 9,14 9,24 0,9 16,48 36,86 20,39 44,84 52,100 9,17 18,32 21,35 8,7 29,41 38,60 30,69 299,351 438,461 213,168 576,358 859,449 350,113 596,155 891,154 230,-1 316,-17 442,-82 73,-38 157,-109 174,-146 5,-12 13,-28 18,-36 28,-49 41,-80 41,-98 0,-11 7,-36 15,-55 9,-21 15,-67 15,-109 0,-65 -7,-100 -42,-203 -5,-16 -14,-49 -19,-72 -4,-23 -13,-50 -18,-60 -5,-10 -19,-38 -31,-63 -11,-25 -25,-52 -30,-60 -5,-8 -11,-22 -14,-30 -4,-8 -15,-28 -26,-45 -11,-16 -23,-37 -27,-45 -13,-28 -117,-176 -181,-259 -68,-88 -349,-374 -462,-472 -94,-81 -222,-185 -320,-259 -47,-36 -87,-68 -90,-71 -3,-3 -26,-20 -53,-38 -51,-34 -97,-80 -97,-95 0,-5 -8,-18 -17,-28 -25,-28 -25,-158 0,-186 9,-10 17,-23 17,-28 0,-16 49,-62 95,-90 61,-35 150,-43 231,-19 67,19 85,31 205,129 47,39 99,82 116,96 180,146 627,597 740,746 20,27 40,51 43,54 14,12 80,98 80,104 0,4 6,13 13,20 6,8 19,24 27,36 8,12 22,32 31,44 9,11 42,64 73,116 31,52 61,102 66,110 31,50 110,228 110,248 0,10 7,27 15,38 8,10 15,29 15,42 0,13 5,33 12,45 7,12 15,49 19,82 4,33 12,91 19,128 11,59 11,79 -3,145 -10,43 -17,91 -17,107 -1,17 -7,41 -15,55 -8,14 -14,34 -15,44 0,39 -106,231 -165,302 -137,163 -303,275 -502,338 -76,23 -110,31 -263,58 -76,13 -432,18 -505,7 z m -422,-5440 c 22,-10 36,-32 76,-119 9,-19 20,-41 26,-49 14,-19 42,-102 86,-248 24,-80 32,-147 33,-273 1,-129 -15,-244 -35,-265 -5,-5 -9,-21 -9,-35 0,-48 -38,-139 -112,-272 -35,-62 -134,-182 -226,-275 -173,-173 -371,-303 -622,-410 -133,-56 -170,-69 -300,-98 -275,-61 -488,-67 -719,-19 -82,17 -222,74 -308,126 -86,51 -253,223 -253,260 0,9 -7,21 -15,28 -8,7 -15,20 -15,29 0,9 -7,25 -15,35 -8,11 -15,29 -15,41 0,12 -5,26 -11,32 -20,20 -24,195 -6,250 8,26 18,63 22,80 3,18 11,35 16,38 5,4 9,14 9,23 0,27 60,142 108,207 98,131 203,223 367,322 294,176 499,261 875,362 85,23 169,46 185,50 66,19 202,53 430,110 132,34 260,67 285,76 46,15 102,13 143,-6 z m 3113,-564 c 14,-21 15,-31 5,-51 -6,-14 -11,-40 -11,-59 0,-19 -6,-52 -14,-72 -8,-21 -22,-72 -31,-113 -9,-41 -21,-93 -26,-115 -6,-22 -14,-57 -18,-78 -5,-21 -14,-44 -20,-50 -6,-6 -11,-25 -11,-41 0,-17 -6,-51 -14,-76 -8,-25 -22,-72 -31,-105 -10,-33 -23,-76 -30,-95 -29,-82 -37,-107 -45,-135 -10,-37 -29,-89 -47,-132 -7,-17 -13,-37 -13,-45 0,-11 -36,-105 -70,-183 -5,-11 -16,-38 -25,-60 -20,-48 -74,-164 -86,-185 -4,-8 -20,-37 -34,-65 -14,-27 -34,-63 -45,-80 -11,-16 -24,-39 -29,-50 -5,-11 -21,-37 -35,-58 -14,-21 -26,-40 -26,-43 0,-16 -135,-181 -205,-250 -101,-99 -204,-169 -290,-196 -57,-18 -70,-19 -110,-8 -47,13 -85,49 -85,79 0,10 -5,22 -10,27 -29,29 -47,229 -31,344 11,79 17,121 41,259 5,29 13,58 19,64 6,6 11,19 11,29 0,9 7,34 16,55 9,21 23,52 29,68 23,54 86,179 106,210 10,17 22,38 25,48 4,9 10,17 14,17 5,0 12,10 16,22 3,12 10,26 15,32 5,6 43,58 85,116 42,58 91,121 108,141 17,20 53,63 81,95 77,91 432,442 516,509 41,33 89,75 106,95 18,19 41,42 50,50 10,8 38,36 63,62 25,25 51,47 57,47 7,1 20,-10 29,-24 z"
       id="path2" />
  </g>
</svg>
